<svg xmlns="http://www.w3.org/2000/svg" data-name="Layer 1" width="815.34" height="580" viewBox="0 0 815.34 580" xmlns:xlink="http://www.w3.org/1999/xlink"><path d="M882.21,696.13c0,20.86-94.31,37.86-210.46,37.86S461.3,717,461.3,696.13s94.31-37.87,210.45-37.87S882.21,675.26,882.21,696.13Z" transform="translate(-192.33 -160)" fill="#3f3d56"/><path d="M682.46,631s-.69,18-3.12,24.05-5.19,36.77-5.19,36.77l9.69-3.46s3.46-22.66,5.53-26.47,0-30.27,0-30.27Z" transform="translate(-192.33 -160)" fill="#ffb8b8"/><path d="M667.84,449.36v17.28S660,478.33,660,478v19.36S658.85,615,665.4,627.49s9,24.05,9,24.05l10.37-1.38s-2.08-35.77-1.38-41.61-.35-21.66.69-28.16a98.89,98.89,0,0,0,.35-16.24c0-3.11.35-32.28.35-32.28l5.88-45.07s3.81-30.92,3.81-31.27-1.57-9.95-1.57-9.95Z" transform="translate(-192.33 -160)" fill="#2f2e41"/><path d="M650.57,453.17l-4.16,49.92s-9.69,38.5-14.19,71.52-9.7,26.12-9.7,26.12l-6.92-13.84s9-13.5,9-21.62,13.5-59.08,13.5-59.08L633.63,475Z" transform="translate(-192.33 -160)" fill="#2f2e41"/><path d="M685.23,339.79l10.38,3.46s15.57,58,13.5,64.62-15.58,66-15.58,66-9-32.61-24.74-35.04,4.15-20.2,4.15-20.2l-2.77-60.12Z" transform="translate(-192.33 -160)" fill="#2f2e41"/><path d="M632.59,349.83s-4.15,12.46-4.84,18.31-40,12.11-40,12.11l-5.88-6.92S613,360.55,613,355.36s5.54-18.31,5.54-18.31Z" transform="translate(-192.33 -160)" fill="#ffb8b8"/><path d="M647.11,352.25v24.4s-6.57,16.61-5.53,28.38-3.46,96.87-3.46,96.87l-9.69,112.09-12.12-2.42s-.69-94.44-3.46-112.09-3.83-71.86-.73-81.9l-15.91-27.69,36.11-30.05Z" transform="translate(-192.33 -160)" fill="#2f2e41"/><circle cx="462.02" cy="145.68" r="17.66" fill="#ffb8b8"/><path d="M673.72,313.68s-3.46,29.32-3.46,30.61-19,6.57-29.32,2.77c0,0,2.77-19.35,1.38-30.61Z" transform="translate(-192.33 -160)" fill="#ffb8b8"/><path d="M675.44,340.14s3.11-19-14.54-24.39c0,0-28.62-5.19-38.31,20.93,0,0,4.15-9.35-3.11-11.77s-7.27,11.77-7.27,11.77L614,340.14l1.39,9.7-3.47,6.92,6.93,1.38,1,10.38,10.73-19.69-2.42-3.46s-7.26-14.54,2.42-16.62c0,0,22.32-6.92,33.39-.34,0,0,15.92,3.11,14.19,12.11Z" transform="translate(-192.33 -160)" fill="#2f2e41"/><path d="M698.73,383.67l-2.33,7.29s-19.39-10.7-14.91-15.41Z" transform="translate(-192.33 -160)" fill="#ffb8b8"/><path d="M647.8,330.11l-5.53,3.46-27.25,7.94s-5.44,1.23-4.42,12.22l-5.05,23.34-16.27,26.81s-11.77,4.15-12.46,11.77S587.54,462.53,593.77,462.53s28.27-46.84,28.27-46.84l23.69-28.27,2.08-57.35Z" transform="translate(-192.33 -160)" fill="#2f2e41"/><path d="M661.3,333.22l15.92,9S677.22,359,677.22,359s5.19,41.27,6.92,42.65.69,3.46,0,5.19-6.92,25.43-6.92,26.47-2.77,21.29-2.77,21.29-13.49-7.61-16.61-6.57c0,0,4.49-16.62,2.42-23.54s-3.11-36.42-3.11-36.42-3.29-58.17-8.13-60.94S661.3,333.22,661.3,333.22Z" transform="translate(-192.33 -160)" fill="#2f2e41"/><polygon points="463.75 92.75 437.75 71.75 401.75 66.75 394.75 96.75 412.75 100.75 417.75 84.75 417.75 100.75 426.75 102.75 431.75 77.75 435.75 102.75 465.75 101.75 463.75 92.75" fill="#2f2e41"/><rect x="169.88" y="28.35" width="78.69" height="362.79" fill="#f2f2f2"/><rect x="63.89" y="88.35" width="78.69" height="302.79" fill="#1e5f94"/><rect x="275.88" y="68.35" width="78.69" height="322.79" fill="#f2f2f2"/><rect x="381.88" y="18.35" width="78.69" height="372.79" fill="#f2f2f2"/><rect y="412.15" width="815.34" height="2" fill="#3f3d56"/><polygon points="235.5 253.15 233.5 292.15 249.5 363.15 234.5 410.15 243.5 411.15 267.5 331.15 252.5 285.15 253.5 252.15 235.5 253.15" fill="#3f3d56"/><polygon points="146.5 253.15 144.5 292.15 160.5 363.15 145.5 410.15 154.5 411.15 178.5 331.15 163.5 285.15 164.5 252.15 146.5 253.15" fill="#3f3d56"/><polygon points="487.5 253.15 485.5 292.15 501.5 363.15 486.5 410.15 495.5 411.15 519.5 331.15 504.5 285.15 505.5 252.15 487.5 253.15" fill="#3f3d56"/><polygon points="392.5 253.15 390.5 292.15 406.5 363.15 391.5 410.15 400.5 411.15 424.5 331.15 409.5 285.15 410.5 252.15 392.5 253.15" fill="#3f3d56"/><path d="M657.25,284.61s17.11-7.82,20-2.6,17.11,13.05,17.11,13.05,10.88,5.22,12.09,6.48,29.15-8.18,38.59-1.3,11.74,11.74,11.74,11.74l-73.15,21.18L657,321l6.53-15Z" transform="translate(-192.33 -160)" fill="#3f3d56"/><path d="M711.63,421.58l8.66-23.61,20.8-53.36,5.46-17.49a17.33,17.33,0,0,0-10.64-22h0a17.31,17.31,0,0,0-22,10.63L693.72,378.89a30.984,30.984,0,0,0-1.31,12.39l1.98,20.9Z" transform="translate(-192.33 -160)" fill="#3f3d56"/><path d="M713.49,392.15l17.64-35.59,3.92,2.77s2.42,7.67,0,15.33S720.06,401.15,720.06,401.15Z" transform="translate(-192.33 -160)" fill="#3f3d56"/></svg>