<svg xmlns="http://www.w3.org/2000/svg" data-name="Layer 1" width="753.87" height="703.59" viewBox="0 0 753.87 703.59" xmlns:xlink="http://www.w3.org/1999/xlink"><path d="M578.37,193.79h-33.4a9.24,9.24,0,0,0-9.24,9.24h0v28.5a9.24,9.24,0,0,0,9.24,9.24h7.82v41.38l24.09-41.38h1.49a9.24,9.24,0,0,0,9.24-9.24v-28.5a9.24,9.24,0,0,0-9.24-9.24Z" transform="translate(-223.06 -98.21)" fill="#1e5f94"/><path d="M825.09,262.22l-27.53-15.9a13.29,13.29,0,0,0-18.21,4.86h0l-13.83,23.95a13.29,13.29,0,0,0,4.86,18.21l6.44,3.72-20.14,34.89,43.52,3.09,1.23-2.13a13.31,13.31,0,0,0-4.86-18.21L810,310l13.82-23.95A13.29,13.29,0,0,0,825.09,262.22Z" transform="translate(-223.06 -98.21)" fill="#1e5f94"/><circle cx="461.25" cy="100.11" r="15.35" fill="#1e5f94"/><path d="M723.78,291.17a204.62,204.62,0,0,0-47.56-66.17c-45.69-43.75-108.49-70.66-175.95-70.66-141.39,0-256.11,114.69-256.11,256.05S358.88,666.4,500.27,666.4a256.8,256.8,0,0,0,57.25-6.44l-.53-30.13,31.59-9.6a255.14,255.14,0,0,0,94.49-48.78C728.44,533.49,774.34,457.34,774.34,370,774.34,342.16,770.5,315.28,723.78,291.17ZM682.83,549.14c-43.28,36.78-99.66,57-159.33,57A203.84,203.84,0,0,1,320.38,402.27c0-112.44,91.07-203.47,203.5-203.47l1.78,0c54.45.53,105.34,22.89,143.15,62.86h0c38.28,40.45,59.35,93.42,59.35,149a202.41,202.41,0,0,1-34.76,113A41.82,41.82,0,0,0,682.83,549.14Z" transform="translate(-223.06 -98.21)" fill="#3f3d56"/><path d="M618.08,562.16l-12.4-23.38a9.24,9.24,0,0,0-12.5-3.83l-149.84,79.45a9.25,9.25,0,0,0-3.84,12.5l12.41,23.38a9.24,9.24,0,0,0,12.5,3.83l149.84-79.45A9.24,9.24,0,0,0,618.08,562.16Zm-39.1,10a9.24,9.24,0,0,1-3.84,12.5l-82.56,43.77a9.24,9.24,0,0,1-12.5-3.83l-7.1-13.39a9.24,9.24,0,0,1,3.83-12.5l82.56-43.77a9.25,9.25,0,0,1,12.51,3.83Z" transform="translate(-223.06 -98.21)" fill="#1e5f94"/><path d="M535.34,336.07h-69a9.24,9.24,0,0,0-9.24,9.24v46a9.25,9.25,0,0,0,9.24,9.25H483v67.49L542.68,400.5h61.91a9.23,9.23,0,0,0,9.23-9.25v-46a9.22,9.22,0,0,0-9.23-9.24h-69V336.1Z" transform="translate(-223.06 -98.21)" fill="#f2f2f2"/><path d="M605.25,249.05a11.65,11.65,0,0,0-8.54-11.2L501,211.15a11.66,11.66,0,0,0-14.49,7.95l-23.3,78.95a11.68,11.68,0,0,0,8.18,14.36l95.72,26.7a11.68,11.68,0,0,0,14.49-7.95l.19-.68,26.92-7.56a11.64,11.64,0,0,0,8.65-10.82,11.36,11.36,0,0,0-.52-3.45Zm-72.1,44.09L482,274.79a3.5,3.5,0,0,1,2.36-4.32l51.16-11.59a3.5,3.5,0,0,1,4.17,2.73l3.99,17.58a3.5,3.5,0,0,1-2.66,4.17l-7.88,1.79Z" transform="translate(-223.06 -98.21)" fill="#1e5f94"/><circle cx="324.81" cy="145.22" r="24" fill="#f2f2f2"/><circle cx="461.25" cy="139.39" r="24" fill="#f2f2f2"/><circle cx="603.9" cy="177.71" r="24" fill="#f2f2f2"/><circle cx="543.48" cy="525.47" r="24" fill="#f2f2f2"/><circle cx="368.88" cy="492.58" r="24" fill="#f2f2f2"/><path d="M500.47,665.93v-72.5a13.31,13.31,0,0,0-13.29-13.29H471.06a13.31,13.31,0,0,0-13.29,13.29v72.5l13.65,1.46v-61.4h15.4v61.4Z" transform="translate(-223.06 -98.21)" fill="#1e5f94"/><path d="M875.47,344.93v-72.5a13.31,13.31,0,0,0-13.29-13.29H846.06a13.31,13.31,0,0,0-13.29,13.29v72.5l13.65,1.46v-61.4h15.4v61.4Z" transform="translate(-223.06 -98.21)" fill="#1e5f94"/><path d="M976.94,801.79h-193a1,1,0,0,1,0-2h193a1,1,0,0,1,0,2Z" transform="translate(-223.06 -98.21)" fill="#cbcbcb"/><circle cx="397.15" cy="335.09" r="154.14" fill="#1e5f94" opacity="0.1"/><path d="M635.57,428a49.14,49.14,0,1,1-93.65-21.07,49.14,49.14,0,0,1,93.65,21.07ZM391.47,428a49.13,49.13,0,1,1-93.64-21.06,49.13,49.13,0,0,1,93.64,21.06Z" transform="translate(-223.06 -98.21)" fill="#e6e6e6"/><path d="M620.22,433.53a87.35,87.35,0,1,1-166.42-37.41,87.35,87.35,0,1,1,166.42,37.41Zm-274.81,0A87.34,87.34,0,1,1,179,396.12a87.34,87.34,0,1,1,166.41,37.41Z" transform="translate(-223.06 -98.21)" fill="#e6e6e6"/><path d="M600.82,437.7A87.34,87.34,0,1,1,434.4,400.29a87.34,87.34,0,0,1,166.42,37.41Zm-274.81,0A87.34,87.34,0,1,1,159.59,400.29,87.34,87.34,0,0,1,326,437.7Z" transform="translate(-223.06 -98.21)" fill="#f2f2f2"/><path d="M577.75,452.65a73.24,73.24,0,1,1-139.5-31.38A73.24,73.24,0,0,1,577.75,452.65Zm-274.81,0a73.24,73.24,0,1,1-139.5-31.38A73.24,73.24,0,1,1,302.94,452.65Z" transform="translate(-223.06 -98.21)" fill="#fff"/><path d="M461.11,470.59a8.87,8.87,0,0,1-8.86-8.86V418.18a8.87,8.87,0,0,1,8.86-8.87h15.1a8.87,8.87,0,0,1,8.87,8.87v43.55a8.87,8.87,0,0,1-8.87,8.86Z" transform="translate(-223.06 -98.21)" fill="#e6e6e6"/><path d="M186.3,470.59a8.87,8.87,0,0,1-8.86-8.86V418.18a8.87,8.87,0,0,1,8.86-8.87h15.1a8.87,8.87,0,0,1,8.87,8.87v43.55a8.87,8.87,0,0,1-8.87,8.86Z" transform="translate(-223.06 -98.21)" fill="#e6e6e6"/><circle cx="244.58" cy="366.7" r="22.72" fill="#e6e6e6"/><circle cx="508.05" cy="366.7" r="22.72" fill="#e6e6e6"/><path d="M755.1,538.59l-35.1-35.1a5.62,5.62,0,0,0-7.95,0l-35.1,35.1a5.62,5.62,0,0,0,0,7.95l35.1,35.1a5.62,5.62,0,0,0,7.95,0l35.1-35.1A5.63,5.63,0,0,0,755.1,538.59Zm-39.08,30-27.06-27.06,27.06-27.06,27.07,27.06Z" transform="translate(-223.06 -98.21)" fill="#f2f2f2"/><path d="M758.06,435.2l-1,6h-2l1.46-9h1.63l4.89,6.61,4.9-6.61h1.62l1.46,9h-2l-1-6L764.06,441h-2Z" transform="translate(-223.06 -98.21)" fill="#3f3d56"/><path d="M778.06,438.2v-9h7v1h-5v3h4v1h-4v3h5v1Z" transform="translate(-223.06 -98.21)" fill="#3f3d56"/><path d="M794.06,433.2v4a4.97,4.97,0,0,1-7,0v-8h2v8a3.1,3.1,0,0,0,1.5,1,3.11,3.11,0,0,0,1.5-1v-8h2Z" transform="translate(-223.06 -98.21)" fill="#3f3d56"/><path d="M804.06,438.2v-9h2v8h5v1Z" transform="translate(-223.06 -98.21)" fill="#3f3d56"/><path d="M818.06,438.2v-9h2v9Z" transform="translate(-223.06 -98.21)" fill="#3f3d56"/><path d="M830.06,438.2v-9h2l4,6v-6h2v9h-2l-4-6v6Z" transform="translate(-223.06 -98.21)" fill="#3f3d56"/><path d="M847.06,430.2v-1h2v1Z" transform="translate(-223.06 -98.21)" fill="#3f3d56"/><path d="M864.06,435.2c0,1.33-.92,3-3,3-1.4,0-3-1-3-3v-6h2v6a.9.9,0,0,0,1,1,1.06,1.06,0,0,0,1-1v-6h2Z" transform="translate(-223.06 -98.21)" fill="#3f3d56"/><path d="M877.06,438.2h-2v-3.6c0-.4-.49-.4-.49-.4h-1.51v4h-2v-9h4a2.79,2.79,0,0,1,2,3v1a2.07,2.07,0,0,1-1,2,1.93,1.93,0,0,1,1,2ZM873.06,433.2h2v-3h-2Z" transform="translate(-223.06 -98.21)" fill="#3f3d56"/><path d="M886.06,438.2v-9h2l4,6v-6h2v9h-2l-4-6v6Z" transform="translate(-223.06 -98.21)" fill="#3f3d56"/><path d="M903.06,438.2v-9h2v9Z" transform="translate(-223.06 -98.21)" fill="#3f3d56"/><path d="M918.06,438.2v-9h2v8h5v1Z" transform="translate(-223.06 -98.21)" fill="#3f3d56"/><path d="M932.06,431.2v-2h4v2Z" transform="translate(-223.06 -98.21)" fill="#3f3d56"/></svg>